<svg xmlns="http://www.w3.org/2000/svg" viewBox="0 0 220 220" role="img" aria-label="Emblème Coupe du Monde 2026">
  <defs>
    <linearGradient id="g" x1="0" y1="0" x2="1" y2="1">
      <stop offset="0" stop-color="#1ce0a5"/>
      <stop offset="1" stop-color="#0f9d76"/>
    </linearGradient>
  </defs>
  <!-- anneau -->
  <circle cx="110" cy="110" r="100" fill="none" stroke="url(#g)" stroke-width="6"/>
  <circle cx="110" cy="110" r="100" fill="none" stroke="#0f9d76" stroke-width="1" opacity=".3"/>
  <!-- trois arcs = pays hôtes (Canada / USA / Mexique) -->
  <g fill="none" stroke-width="7" stroke-linecap="round">
    <path d="M110 22 A88 88 0 0 1 186 66" stroke="#e5484d"/>
    <path d="M186 66 A88 88 0 0 1 152 192" stroke="#3b82f6"/>
    <path d="M152 192 A88 88 0 0 1 34 154" stroke="#e0a338"/>
  </g>
  <!-- trophée stylisé -->
  <g fill="#0f9d76">
    <path d="M86 58 h48 v10 c0 26 -10 40 -24 44 c-14 -4 -24 -18 -24 -44 z"/>
    <path d="M86 64 c-12 0 -16 -8 -16 -16 h10 c0 5 2 8 6 8 z"/>
    <path d="M134 64 c12 0 16 -8 16 -16 h-10 c0 5 -2 8 -6 8 z"/>
    <rect x="104" y="110" width="12" height="16"/>
    <rect x="90" y="126" width="40" height="9" rx="2"/>
  </g>
  <!-- 26 -->
  <text x="110" y="172" text-anchor="middle" font-family="Sora, Inter, sans-serif" font-weight="800" font-size="40" fill="#0f1720" letter-spacing="1">26</text>
</svg>
