<svg xmlns="http://www.w3.org/2000/svg" viewBox="0 0 100 100">
<circle cx="50" cy="50" r="47" fill="#ffffff" stroke="#0f1720" stroke-width="3.5"/>
<g stroke="#0f1720" stroke-width="2.6" stroke-linecap="round">
<line x1="50.0" y1="35.0" x2="50.0" y2="20.0"/>
<line x1="64.3" y1="45.4" x2="78.5" y2="40.7"/>
<line x1="58.8" y1="62.1" x2="67.6" y2="74.3"/>
<line x1="41.2" y1="62.1" x2="32.4" y2="74.3"/>
<line x1="35.7" y1="45.4" x2="21.5" y2="40.7"/>
</g>
<polygon points="50.0,35.0 64.3,45.4 58.8,62.1 41.2,62.1 35.7,45.4" fill="#0f1720"/>
<polygon points="74.4,16.4 77.5,25.9 69.4,31.8 61.3,25.9 64.4,16.4" fill="#0f1720"/>
<polygon points="89.5,62.8 81.4,68.7 73.3,62.8 76.4,53.3 86.4,53.3" fill="#0f1720"/>
<polygon points="50.0,91.5 41.9,85.6 45.0,76.1 55.0,76.1 58.1,85.6" fill="#0f1720"/>
<polygon points="10.5,62.8 13.6,53.3 23.6,53.3 26.7,62.8 18.6,68.7" fill="#0f1720"/>
<polygon points="25.6,16.4 35.6,16.4 38.7,25.9 30.6,31.8 22.5,25.9" fill="#0f1720"/>
</svg>