<svg xmlns="http://www.w3.org/2000/svg" viewBox="0 0 100 100">
<defs><clipPath id="b"><circle cx="50" cy="50" r="46"/></clipPath></defs>
<circle cx="50" cy="50" r="46" fill="#fff" stroke="#0f1720" stroke-width="3.5"/>
<g clip-path="url(#b)">
<g stroke="#0f1720" stroke-width="2.4" stroke-linecap="round">
<line x1="50.0" y1="36.0" x2="50.0" y2="16.0"/>
<line x1="63.3" y1="45.7" x2="82.3" y2="39.5"/>
<line x1="58.2" y1="61.3" x2="70.0" y2="77.5"/>
<line x1="41.8" y1="61.3" x2="30.0" y2="77.5"/>
<line x1="36.7" y1="45.7" x2="17.7" y2="39.5"/>
</g>
<polygon points="50.0,36.0 63.3,45.7 58.2,61.3 41.8,61.3 36.7,45.7" fill="#0f1720"/>
<polygon points="70.0,22.5 65.3,8.0 77.6,-1.0 90.0,8.0 85.3,22.5" fill="#0f1720"/>
<polygon points="82.3,60.5 94.7,51.5 107.1,60.5 102.3,75.0 87.1,75.0" fill="#0f1720"/>
<polygon points="50.0,84.0 62.4,93.0 57.6,107.5 42.4,107.5 37.6,93.0" fill="#0f1720"/>
<polygon points="17.7,60.5 12.9,75.0 -2.3,75.0 -7.1,60.5 5.3,51.5" fill="#0f1720"/>
<polygon points="30.0,22.5 14.7,22.5 10.0,8.0 22.4,-1.0 34.7,8.0" fill="#0f1720"/>
</g></svg>