<svg xmlns="http://www.w3.org/2000/svg" viewBox="0 0 64 64">
  <circle cx="32" cy="32" r="29" fill="#ffffff" stroke="#0f1720" stroke-width="2.5"/>
  <!-- pentagone central -->
  <polygon points="32,20 41.6,27 37.9,38.3 26.1,38.3 22.4,27" fill="#0f1720"/>
  <!-- pentagones périphériques (partiels, vers le bord) -->
  <polygon points="32,4.5 39,9.6 32,20 25,9.6" fill="#0f1720"/>
  <polygon points="58.5,24 53.2,40.4 37.9,38.3 41.6,27 50.5,20.5" fill="#0f1720"/>
  <polygon points="5.5,24 13.5,20.5 22.4,27 26.1,38.3 10.8,40.4" fill="#0f1720"/>
  <polygon points="17,57 22.6,46.5 37.9,46.5 43,57" fill="#0f1720" opacity="0"/>
  <polygon points="26.1,38.3 37.9,38.3 43.5,49 32,56.5 20.5,49" fill="#0f1720"/>
  <!-- coutures reliant les pentagones -->
  <g fill="none" stroke="#0f1720" stroke-width="2" stroke-linecap="round">
    <line x1="32" y1="20" x2="32" y2="12"/>
    <line x1="41.6" y1="27" x2="48" y2="23"/>
    <line x1="37.9" y1="38.3" x2="44.5" y2="42"/>
    <line x1="26.1" y1="38.3" x2="19.5" y2="42"/>
    <line x1="22.4" y1="27" x2="16" y2="23"/>
  </g>
</svg>
