<svg xmlns="http://www.w3.org/2000/svg" viewBox="0 0 64 64" role="img" aria-label="Poulpe — Polpo Paolo">
  <defs>
    <linearGradient id="oct" x1="0" y1="0" x2="1" y2="1">
      <stop offset="0" stop-color="#1ce0a5"/>
      <stop offset="1" stop-color="#0d7d63"/>
    </linearGradient>
  </defs>
  <circle cx="32" cy="32" r="30" fill="#ffffff" stroke="#0f1720" stroke-width="2.5"/>
  <g fill="url(#oct)">
    <!-- tête / manteau -->
    <path d="M32 12
             c-11 0 -19 8 -19 19
             v9
             c0 2.6 3 3.4 4.6 1.5
             l2.3 -2.7 c0.9 -1 2.5 -1 3.4 0.1 l2.4 2.9
             c0.9 1.1 2.5 1.1 3.5 0 l2.3 -2.7 c0.9 -1.1 2.6 -1.1 3.5 0
             l2.3 2.7 c1 1.1 2.6 1.1 3.5 0 l2.4 -2.9 c0.9 -1.1 2.5 -1.1 3.4 -0.1
             l2.3 2.7 c1.6 1.9 4.6 1.1 4.6 -1.5 v-9
             c0 -11 -8 -19 -19 -19 z"/>
  </g>
  <!-- yeux -->
  <g>
    <circle cx="25" cy="29" r="5.2" fill="#ffffff"/>
    <circle cx="39" cy="29" r="5.2" fill="#ffffff"/>
    <circle cx="26" cy="30" r="2.4" fill="#0f1720"/>
    <circle cx="38" cy="30" r="2.4" fill="#0f1720"/>
  </g>
</svg>
